<svg width="6" height="12" viewBox="0 0 6 12" fill="none" xmlns="http://www.w3.org/2000/svg">
<path fill-rule="evenodd" clip-rule="evenodd" d="M3.17804 3.13325L3.23738 3.14498C3.29169 3.14884 3.34553 3.16681 3.39254 3.19979L4.80436 4.1904C5.03291 4.35075 5.16772 4.60439 5.16772 4.87399V6.24194C5.16772 6.39848 5.03391 6.52539 4.86883 6.52539C4.70376 6.52539 4.56994 6.39848 4.56994 6.24194V4.87399C4.56994 4.78412 4.52499 4.69958 4.44881 4.64613L3.7308 4.142L3.73132 6.24194C3.73095 6.3952 3.66588 6.54773 3.53766 6.65943L1.93332 8.05704C1.84536 8.13367 1.78363 8.23352 1.75607 8.34372L1.17962 10.6488C1.10343 10.9534 0.781265 11.1418 0.460031 11.0696C0.138798 10.9973 -0.0598545 10.6918 0.0163307 10.3871L0.592784 8.08208C0.675464 7.75146 0.860661 7.45191 1.12452 7.22205L1.93985 6.51109L1.93999 4.04245C1.93999 3.85306 2.03972 3.67618 2.20579 3.57101L2.75636 3.22231C2.88323 3.14195 3.03394 3.11255 3.17804 3.13325ZM2.73078 8.0688L3.60025 7.35424C3.64335 7.38103 3.68325 7.41345 3.71865 7.45123L3.76821 7.51191L5.676 10.2015C5.86027 10.4613 5.78758 10.8136 5.51364 10.9883C5.25928 11.1506 4.92084 11.1028 4.72625 10.8871L4.684 10.8344L2.77621 8.14475C2.75878 8.12018 2.74366 8.09479 2.73078 8.0688L3.60025 7.35424L2.73078 8.0688ZM1.67321 4.94537V5.69595L0.978016 6.26973C0.86728 6.36102 0.705824 6.36128 0.595247 6.27723L0.556353 6.24178C0.460086 6.13676 0.459812 5.98363 0.548436 5.87876L0.585833 5.84189L1.67321 4.94537ZM1.85017 0.804077C2.51045 0.804077 3.04572 1.3117 3.04572 1.93788C3.04572 2.56407 2.51045 3.07169 1.85017 3.07169C1.18988 3.07169 0.654609 2.56407 0.654609 1.93788C0.654609 1.3117 1.18988 0.804077 1.85017 0.804077Z" fill="black"/>
</svg>
